<svg id="Layer_1" data-name="Layer 1" xmlns="http://www.w3.org/2000/svg" viewBox="0 0 438.13 482.55"><defs><style>.cls-1{fill:#37724f;}</style></defs><path class="cls-1" d="M285.38,340.06l1.61-2.13A1063.46,1063.46,0,0,1,21.7,43.13l-2.29,1.38A1066.31,1066.31,0,0,0,285.38,340.06Z"/><path class="cls-1" d="M284.46,337.76a42.57,42.57,0,0,0,7.66,9.68c2.93,2.86,6,5.34,8.73,7.61a150,150,0,0,0,14.89,11c4.2,2.59,10.86,7.14,18.07,11.91a192.37,192.37,0,0,0,21.29,12.58,205,205,0,0,0,31.31,11.22c12.68,3.58,25.53,5.92,32.3,7.27a289.61,289.61,0,0,1-36.56-18.81c-11.84-7.12-22-14.49-28.57-18.79s-15-9.62-23.35-14.54a226.32,226.32,0,0,0-22.44-11.8,115.79,115.79,0,0,0-13.6-5.12A68.28,68.28,0,0,0,284.46,337.76Z"/><path class="cls-1" d="M274.59,329.28c4.33,5.64,10.67,9.86,16.78,12.47a52.9,52.9,0,0,0,16.34,4.19c4.38.39,11.39.91,18.48,1.41s14.3,1.15,19.56,1.64c2.66.18,6.51.5,11.16,1.1s10,1.49,15.47,2.39,11,1.78,15.85,2.3,9.07.72,11.95.84a112.24,112.24,0,0,1-15.64-6c-5.37-2.46-10.83-5.24-16.3-7.82a133.09,133.09,0,0,0-16.14-6.55,81.31,81.31,0,0,0-13.34-3.07c-7-1-15.71-1.16-23.66-1.27s-15.33-.34-20.23-.82-8.53-.91-11.63-1.13A39.39,39.39,0,0,0,274.59,329.28Z"/><path class="cls-1" d="M262.6,321.28a165,165,0,0,0,7.11,20.39,97,97,0,0,0,7.94,15.25l10.81,16.79A170.3,170.3,0,0,0,301.88,392a214.45,214.45,0,0,0,22.2,20.8c9.26,7.71,19,14.63,24.1,18.43A331.43,331.43,0,0,1,325.49,401c-7.09-10.51-12.93-20.46-16.89-26.45s-9.17-13.43-14.3-20.56-10.28-13.84-14-18.23C273,327,268.48,323.33,262.6,321.28Z"/><path class="cls-1" d="M248.11,309.22a73.74,73.74,0,0,0,20.16,9.64A67.23,67.23,0,0,0,286.21,322c4.83.12,12.69.27,21-.25a129.79,129.79,0,0,0,23.12-3.26c3.16-.75,7.53-2.26,12.33-3.72a96,96,0,0,1,16.27-3.34,187.87,187.87,0,0,1,30.5-.71c-11.08-3.11-24.8-7.19-38.7-8a89.14,89.14,0,0,0-10.2,0c-3.26.17-6.28.46-9,.71l-13.62,1.16c-7.13.71-16.06,1.61-24.66,2s-16.84.51-22.43.46C259.55,306.84,254,307,248.11,309.22Z"/><path class="cls-1" d="M249.83,311.46c1.1,7,2.19,13.91,3.17,20.16.46,3,.9,5.82,1.3,8.4s.81,4.85,1.28,6.94,1,4.9,1.72,8.31a87.48,87.48,0,0,0,3.17,11.33,143.08,143.08,0,0,0,9.25,19.92c1.38,2.52,3.57,6,5.69,10.21A71.17,71.17,0,0,1,281,411.26a70.36,70.36,0,0,1,1.6,8.13c.38,2.73.64,5.45,1,8s.69,4.88,1.15,6.92a44.17,44.17,0,0,0,1.47,5.13c-.6-5.21.44-10.91,1.48-17.15a84.74,84.74,0,0,0,1.1-9.85,75.56,75.56,0,0,0-.2-10.1A83.49,83.49,0,0,0,284.64,384c-1.7-5.28-3.4-9.59-4.74-12.76s-2.89-6.63-4.26-10.15c-.67-1.77-1.32-3.53-1.89-5.35s-1.12-3.77-1.66-5.76c-1.06-4-2.12-8.12-3.43-11.93a83.17,83.17,0,0,0-4-9.69A48.14,48.14,0,0,0,257.37,317,21.63,21.63,0,0,0,249.83,311.46Z"/><path class="cls-1" d="M232.37,293.66a35.57,35.57,0,0,0,19.21,9.85,40.08,40.08,0,0,0,18.25-1.07c2.3-.66,5.2-1.65,8.4-2.83s6.63-2.6,10-4.05c6.85-2.95,13.55-5.82,18.45-7.73,2.39-1,6.16-2.38,11-4.29a64,64,0,0,0,7.65-3.6c2.58-1.47,4.92-3.12,7.2-4.66a55.86,55.86,0,0,1,6.94-4.1,49,49,0,0,1,7.2-2.8A43.42,43.42,0,0,1,359,266.52a53.4,53.4,0,0,0-18.18-1A54.64,54.64,0,0,0,331,267.6c-3.14,1-6,2-8.67,2.68-5.07,1.32-10.55,1.58-16,2.43a75.44,75.44,0,0,0-13.69,3.5c-6.87,2.48-14.57,6.43-21.69,9.49a98.37,98.37,0,0,1-10.17,3.81l-2.3.66-2.18.51c-1.4.34-2.69.55-3.87.73-4.7.67-8.33.74-11.43,1A52.31,52.31,0,0,0,232.37,293.66Z"/><path class="cls-1" d="M231.22,294.45a10.86,10.86,0,0,1,1.07,5.23,17.37,17.37,0,0,1-.85,4.74c-.92,3-2.37,6-3.32,9.76a52.71,52.71,0,0,0-1.45,19c.51,4.92,1.63,12.7,2.78,20.45.56,3.88,1.07,7.77,1.46,11.39s.62,7,.89,10,.69,7.34,1,12.54.54,11.2.69,17.26.27,12.19.45,17.58.46,10,.58,13.25c1.92-11.36,5.72-24.85,8.63-37.86A179.21,179.21,0,0,0,246.43,379,89.1,89.1,0,0,0,247,364c-.45-8-2.38-17.42-4-26a138.21,138.21,0,0,1-2.86-21.72c-.14-2.6,0-5.05-.15-7.52a24.16,24.16,0,0,0-1.17-6.83C237.36,297.89,234.45,295,231.22,294.45Z"/><path class="cls-1" d="M212.68,278.21c14.3,4.08,29.24,4.1,38.11,2.58L270,277.71c3.78-.63,7.66-1.3,11.31-2s7.12-1.45,9.91-2.16,6.75-1.87,11.37-2.69a140.18,140.18,0,0,1,16.13-1.7c11.57-.53,23.3-1,29.55-1L330.66,264c-6.25-1.47-12.55-3.07-19-4.17a97,97,0,0,0-9.68-1.23,79.3,79.3,0,0,0-9.21-.08c-5.72.28-10.28.81-13.84,1.31-14.19,2.09-35.19,7-45.86,9.69S217.31,274.19,212.68,278.21Z"/><path class="cls-1" d="M212.61,278a154.47,154.47,0,0,1-1.59,18.2,128.83,128.83,0,0,0-1.3,14.05c0,3.81-.51,10.12-.8,17.17-.12,3.52-.17,7.2,0,10.76a60,60,0,0,0,1.29,9.75c.61,2.79,1.83,6.65,3.25,10.89a132,132,0,0,1,3.93,14c1.16,5,2.25,10.25,3.62,14.67a64.23,64.23,0,0,0,4.13,10.42,57.71,57.71,0,0,1-.72-15.45c.34-5.5,1.07-11.27,1.24-17.2s-.26-11.51-.44-16.09-.18-8.23-.21-11.21c-.09-5.88.1-13.6,0-21.39a107.59,107.59,0,0,0-1.93-20.68,36.82,36.82,0,0,0-4.28-11.77A16.51,16.51,0,0,0,212.61,278Z"/><path class="cls-1" d="M193.7,258.18a52.5,52.5,0,0,0,18.6,6.19,49.51,49.51,0,0,0,15.92-.27c2.1-.39,4.72-1,7.71-1.74l9.74-2.35c6.64-1.78,13.55-3.8,18.57-5.74s14.41-6.41,23.79-11,18.75-9.26,23.85-11.44c-19.59,3.11-48,6.72-60.32,9.77-3.09.78-6.54,1.75-10.11,2.82s-7.14,2.06-10.7,3.17-6.94,2-10.1,2.8-6,1.37-8.33,1.84C203,254.05,198.42,255.05,193.7,258.18Z"/><path class="cls-1" d="M191.63,259.3c-1,3.2-2.49,5.83-3.72,8.75A75.63,75.63,0,0,0,183,284.56a61.59,61.59,0,0,0-.82,6.37c-.14,1.83-.39,4.13-.84,6.71s-1.15,5.72-1.79,9.2c-.31,1.75-.6,3.58-.8,5.48a49.91,49.91,0,0,0-.31,5.66,59.55,59.55,0,0,0,.78,9.59,178.63,178.63,0,0,0,7,25c3.34,9.74,7.37,19.12,9.3,24.14a301.52,301.52,0,0,1-1.6-32c0-5.38.1-10.52.22-15.07s.25-8.3.39-11c.07-1.36.15-2.74.3-4.2s.37-3.06.62-4.77c.51-3.41,1.19-7.28,1.55-11.38a97.75,97.75,0,0,0,.27-11.28c-.1-3.39-.26-6.32-.4-8.72A69.77,69.77,0,0,0,195.5,267,15.09,15.09,0,0,0,191.63,259.3Z"/><path class="cls-1" d="M164.78,232.84a96,96,0,0,0-5.25,18.24A66.34,66.34,0,0,0,158.36,266c.23,4,.39,10.43.82,17.29a134.68,134.68,0,0,0,2.34,19.44,143.54,143.54,0,0,0,8.62,25.09A146,146,0,0,0,177,341.25c2.28,4,4.48,7.24,5.91,9.54-3.08-9.22-5-20.8-5.71-31.53s-.63-20.68-1.06-26.84c-.85-12.26-2.87-31.19-4.46-40.93S168.48,237.08,164.78,232.84Z"/><path class="cls-1" d="M168.62,232.24c3.49.46,6.74,1.13,10.08,1.55a92.1,92.1,0,0,0,9.67.7,78.94,78.94,0,0,0,15.6-1.08c4-.77,10.56-1.73,17.37-2.48s13.9-1.19,19.17-1.63c2.63-.2,6.5-.7,11-.9,2.25-.18,4.73-.18,7.46-.27a60.54,60.54,0,0,0,8.52-.76c5.66-1,10.6-2.81,15.38-3.17a22.25,22.25,0,0,1,6.7.39,14.92,14.92,0,0,1,5.11,2.16,19.12,19.12,0,0,0-7.61-4.72,36.39,36.39,0,0,0-9.27-1.78c-3.11-.26-6.15-.31-8.92-.58a35,35,0,0,1-4-.56c-1.29-.25-2.61-.56-3.95-.9-2.67-.67-5.52-1.5-8.42-2.07s-5.62-1.06-8.24-1.45a87.28,87.28,0,0,0-13.35-.78,131.5,131.5,0,0,0-23.61,3.17c-8,1.71-15.36,3.83-20.29,5.35a75.73,75.73,0,0,0-11.42,4.31A19.34,19.34,0,0,0,168.62,232.24Z"/><path class="cls-1" d="M137.42,203.5a47.62,47.62,0,0,0,18.73,9.4,47,47,0,0,0,17.35,1.23c2.3-.29,5.35-.75,8.65-1.4s6.9-1.48,10.45-2.35c7.1-1.76,14-3.39,19-4.28,2.52-.48,6.32-1.18,11-1.74s10.2-1,15.79-1.63a107.63,107.63,0,0,0,16-2.77,63.43,63.43,0,0,0,11.22-4.17,54,54,0,0,1-16.43.63c-5.78-.6-11.71-1.78-17.63-2.89a132.75,132.75,0,0,0-17.41-2.32,64.16,64.16,0,0,0-14.14.86c-7.2,1.25-15.37,3.91-22.75,5.75a111.54,111.54,0,0,1-19.47,3.06c-4.93.34-8.65.4-11.81.74A34.92,34.92,0,0,0,137.42,203.5Z"/><path class="cls-1" d="M138.05,203.06c-2.37,5.76-4.91,10.6-6.6,15.74a42.76,42.76,0,0,0-1.82,7.6,39.17,39.17,0,0,0-.24,6.78,122.85,122.85,0,0,0,2.43,16.54,104.5,104.5,0,0,0,5.34,17c1.89,4.5,6.41,12.53,10.39,20.8,1,2.07,1.91,4.18,2.82,6.24s1.64,4.12,2.33,6.06,1.26,3.8,1.66,5.49.72,3.19.95,4.44a100.56,100.56,0,0,0,.53-14.79,152.46,152.46,0,0,0-1.44-15.68c-.7-5.09-1.54-9.88-2.32-14.06s-1.53-7.76-2.21-10.42c-1.38-5.35-3.27-11.81-4.5-18a104.55,104.55,0,0,1-1.93-16.33C143.06,211.83,141.86,206.73,138.05,203.06Z"/><path class="cls-1" d="M122.09,184.27a26.2,26.2,0,0,0,8.38,4.78,37.6,37.6,0,0,0,9.15,2,47.65,47.65,0,0,0,14.63-.83c3.58-.82,9.35-1.89,15.48-2.91s12.53-2,17.28-3.08c2.39-.55,5.77-1.42,10-2.57a61.29,61.29,0,0,0,13.85-5.37c2.23-1.25,4.26-2.59,6.24-3.83a64.87,64.87,0,0,1,5.86-3.31,96.44,96.44,0,0,1,9.76-4.2,121.34,121.34,0,0,0-15.25,1.88c-2.73.57-5.35,1.27-7.82,1.78a41,41,0,0,1-7.05.86c-4.67.18-9.52-.18-14.14-.18a99,99,0,0,0-11.57.51,149.13,149.13,0,0,0-20.56,4.09c-7.09,1.91-13.27,4-17.42,5.06s-7.16,1.8-9.74,2.56A42.31,42.31,0,0,0,122.09,184.27Z"/><path class="cls-1" d="M122.69,185.07c-2,2.1-3,5.17-4.21,7.09s-2.51,3.64-3.75,5.42a58.42,58.42,0,0,0-3.37,5.4,39.74,39.74,0,0,0-2.25,4.71c-.55,1.4-1.32,3.21-2.28,5.19-.47,1-1,2-1.55,3.07s-1.25,2.3-1.89,3.48a42.06,42.06,0,0,0-2.1,4.39,38.62,38.62,0,0,0-1.59,4.68,43.25,43.25,0,0,0-1.36,8c-.16,2.26-.09,5.46-.07,8.92a47.42,47.42,0,0,1-1,11.14c-.85,4-2.16,8.05-3.19,11.65s-1.77,6.72-2.2,8.84a90.46,90.46,0,0,1,7.43-10.33,71.46,71.46,0,0,0,8.21-12.15,86.76,86.76,0,0,0,4.82-12.76c1.13-3.66,2.05-6.48,2.72-8.46.34-1,.67-2,1.08-3s.88-2,1.49-3.32,1.36-2.75,2-4.3,1.32-3.09,1.9-4.63c1.14-3.08,2.06-6.11,2.79-8.87s1.26-5.18,1.67-7.29c.82-4.19.88-8,0-10.76S124,187.15,122.69,185.07Z"/><path class="cls-1" d="M110,169.52c11.93,3.91,24.16,3.61,31.24,1.86s23.17-5.14,32.28-8.65c2.26-.88,5.59-2.31,9.48-4.25,1.94-1,4-2.11,6.06-3.34s4-2.56,6-3.87a125.09,125.09,0,0,1,11.52-7.16,36.54,36.54,0,0,1,9.82-3.59,53.51,53.51,0,0,0-15.21,1.29c-5.23,1.1-10.39,2.61-15.13,3.67s-9.17,1.64-13.42,2.27-8,1.27-10.78,1.92c-11.2,2.63-27.67,8-36.07,10.9S113.41,165.48,110,169.52Z"/><path class="cls-1" d="M107.35,167.23c-2.21,5.21-4.65,9.25-6.54,13.29A53.72,53.72,0,0,0,97,190.93c-.59,2.86-2,7.51-3.47,12.55a115.43,115.43,0,0,0-3.65,14.76,95.59,95.59,0,0,0-.24,21.27c.38,4.25,1.25,8.17,1.4,11.77a19.58,19.58,0,0,1-1.39,9c2.83-3.17,4.59-7.83,5.73-12.28A122.63,122.63,0,0,1,99,235.54c2.82-7.8,6.17-14.85,7.68-19.56A141.31,141.31,0,0,0,111,199.1a93.86,93.86,0,0,0,1.72-16.19C112.78,174.82,111.2,170.22,107.35,167.23Z"/><path class="cls-1" d="M88.27,143.3A24.26,24.26,0,0,0,95.8,150a36.91,36.91,0,0,0,9.13,3.73,47.94,47.94,0,0,0,15.48,1.49c4-.3,10.45-.83,17-1.43s13.17-1.16,18-1.66,14.12-1.92,23.86-.6c4.9.63,9.95,1.66,14.41,2.3a79.44,79.44,0,0,0,10.91.9,72.44,72.44,0,0,1-14-6.08c-4.82-2.53-10-5.42-15.65-7.35a78,78,0,0,0-16.13-3.8,76.17,76.17,0,0,0-12.49-.66,197.59,197.59,0,0,0-21.54,2.43c-7.21,1.1-14,2.06-18.4,2.43s-7.61.45-10.36.64A66.3,66.3,0,0,0,88.27,143.3Z"/><path class="cls-1" d="M85.51,141.73c-.3,6.43-.93,12.14-1.62,17s-1.42,9-1.76,12.1S80.51,179,78.53,185c-1,3-2,6.28-2.74,9.57-.37,1.67-.7,3.3-.91,4.93s-.29,3.15-.36,4.56A53.27,53.27,0,0,0,75.8,215.5a83,83,0,0,0,4.51,13.94c3.85,9.21,8.74,17.59,10.92,22.29-1.59-9.09-3.48-20.25-3.45-30.07a71.34,71.34,0,0,1,1.12-13.28,95,95,0,0,1,2.4-9.51c.8-2.73,1.69-5.8,2.62-9a101.89,101.89,0,0,0,2.6-11.07,54.13,54.13,0,0,0,.69-11.46A51.4,51.4,0,0,0,96,158.2a32.44,32.44,0,0,0-4.38-11A15.87,15.87,0,0,0,85.51,141.73Z"/></svg>