<?xml version="1.0" encoding="utf-8"?>
<!-- Generator: Adobe Illustrator 24.1.3, SVG Export Plug-In . SVG Version: 6.00 Build 0)  -->
<svg version="1.1" id="Layer_1" xmlns="http://www.w3.org/2000/svg" xmlns:xlink="http://www.w3.org/1999/xlink" x="0px" y="0px"
	 viewBox="0 0 200 150" style="enable-background:new 0 0 200 150;" xml:space="preserve">
<style type="text/css">
	.st0{fill:#F58020;fill-opacity:0;}
	.st1{fill:#98A523;}
	.st2{fill:url(#SVGID_1_);}
	.st3{fill:#313131;stroke:#313131;stroke-miterlimit:10;}
	.st4{fill:#CADC2E;}
</style>
<g>
	<g transform="translate(54.037187576293945,0)">
		<rect x="1.2" y="5.8" class="st0" width="89.5" height="89.5"/>
		<g>
			<g>
				<g transform="scale(1, 1) skewX(0)">
					<path class="st1" d="M46.2,95.3c-2,0-3.8-0.8-5.2-2.1l-37.6-37c-1.4-1.4-2.2-3.3-2.2-5.3c0-2,0.8-3.9,2.2-5.3L40.3,8.1
						c1.5-1.5,3.4-2.3,5.5-2.3c2,0,3.8,0.8,5.2,2.1l37.6,37c1.4,1.4,2.2,3.3,2.2,5.3c0,2-0.8,3.9-2.2,5.3L51.6,93
						C50.2,94.5,48.2,95.3,46.2,95.3z M45.7,9.5c-1.1,0-2.1,0.4-2.8,1.2L6,48c-0.7,0.8-1.2,1.7-1.2,2.8c0,1,0.4,2,1.1,2.7l37.6,37
						c1.5,1.4,4,1.4,5.5-0.1l36.9-37.4c0.7-0.8,1.2-1.7,1.2-2.8c0-1-0.4-2-1.1-2.7l-37.6-37C47.7,9.8,46.7,9.5,45.7,9.5z"/>
				</g>
			</g>
			<g>
				<linearGradient id="SVGID_1_" gradientUnits="userSpaceOnUse" x1="20.6686" y1="50.563" x2="71.2633" y2="50.563">
					<stop  offset="2.237672e-07" style="stop-color:#CADC2E"/>
					<stop  offset="1" style="stop-color:#98A523"/>
				</linearGradient>
				<path class="st2" d="M48.8,37.2v43.2H37.9V37.2c0-2.2-1.1-3.2-3.2-3.2l0,0c-2.1,0-3.2,1.1-3.2,3.2l0,0v43.2H20.7V20.7h10.9V29
					c2.1-1.3,4.8-1.9,8.2-1.9l0,0c2.4,0,4.5,0.6,6.3,1.9C47.9,30.3,48.8,33,48.8,37.2L48.8,37.2z M71.3,33.5v6.8h-8.4v40.1H51.9
					V40.3h-3.2v-6.8h3.2c0-4.4,1-7.6,3.1-9.7c2-2.1,5.7-3.1,11-3.1l0,0h5.3v6.8H66c-2.1,0-3.2,2-3.2,6l0,0H71.3z"/>
			</g>
		</g>
	</g>
	<g transform="translate(0,68.21562957763672)">
		<path class="st1" d="M28.5,32v21.9h-3.8v-9.7h-9.8v9.7h-3.8V32h3.8v9.1h9.8V32H28.5z M39.8,54.3L39.8,54.3c-2.3,0-4.2-0.7-5.6-2.2
			c-1.4-1.5-2.2-3.4-2.2-5.8l0,0v-0.5c0-1.6,0.3-3.1,0.9-4.4c0.6-1.3,1.5-2.3,2.6-3c1.1-0.7,2.4-1.1,3.8-1.1l0,0
			c2.2,0,3.9,0.7,5.1,2.1c1.2,1.4,1.8,3.4,1.8,6l0,0V47H35.7c0.1,1.3,0.6,2.4,1.3,3.2c0.8,0.8,1.8,1.2,3,1.2l0,0c1.7,0,3-0.7,4.1-2
			l0,0l2,1.9c-0.7,1-1.5,1.7-2.6,2.3S41.1,54.3,39.8,54.3z M39.3,40.3L39.3,40.3c-1,0-1.8,0.4-2.4,1.1c-0.6,0.7-1,1.7-1.2,2.9l0,0h7
			V44c-0.1-1.2-0.4-2.1-1-2.8C41.2,40.6,40.4,40.3,39.3,40.3z M62.6,53.9h-3.7c-0.2-0.3-0.3-0.8-0.4-1.5l0,0
			c-1.2,1.2-2.6,1.8-4.3,1.8l0,0c-1.6,0-3-0.5-4-1.4c-1-0.9-1.6-2.1-1.6-3.5l0,0c0-1.7,0.6-3.1,1.9-4c1.3-0.9,3.1-1.4,5.5-1.4l0,0
			h2.2v-1.1c0-0.8-0.2-1.5-0.7-2c-0.5-0.5-1.2-0.8-2.1-0.8l0,0c-0.8,0-1.5,0.2-2,0.6c-0.5,0.4-0.8,0.9-0.8,1.6l0,0H49
			c0-0.9,0.3-1.7,0.9-2.5c0.6-0.8,1.4-1.4,2.4-1.8c1-0.4,2.1-0.7,3.4-0.7l0,0c1.9,0,3.4,0.5,4.6,1.4c1.1,1,1.7,2.3,1.7,4l0,0v7.3
			c0,1.5,0.2,2.6,0.6,3.5l0,0V53.9z M54.9,51.3L54.9,51.3c0.7,0,1.4-0.2,2-0.5c0.6-0.4,1.1-0.8,1.4-1.4l0,0v-3.1h-2
			c-1.4,0-2.4,0.2-3,0.7c-0.7,0.5-1,1.1-1,2l0,0c0,0.7,0.2,1.3,0.7,1.7C53.4,51.1,54.1,51.3,54.9,51.3z M69.7,30.8v23.1H66V30.8
			H69.7z M74.6,33.7h3.7v4h2.9v2.7h-2.9v9.1c0,0.6,0.1,1.1,0.4,1.3c0.2,0.3,0.7,0.4,1.3,0.4l0,0c0.4,0,0.8,0,1.3-0.1l0,0v2.8
			c-0.8,0.2-1.6,0.3-2.4,0.3l0,0c-2.8,0-4.2-1.6-4.2-4.7l0,0v-9.2h-2.7v-2.7h2.7V33.7z M87.5,30.8v8.6c1.2-1.4,2.7-2.1,4.5-2.1l0,0
			c3.5,0,5.2,2,5.3,5.9l0,0v10.6h-3.7V43.5c0-1.1-0.2-1.9-0.7-2.4c-0.5-0.5-1.2-0.7-2.1-0.7l0,0c-1.5,0-2.6,0.7-3.3,2l0,0v11.6h-3.7
			V30.8H87.5z M103.3,37.7l3.4,11l3.3-11h3.9l-6.5,18.7c-1,2.7-2.7,4.1-5.1,4.1l0,0c-0.5,0-1.1-0.1-1.8-0.3l0,0v-2.8l0.7,0
			c0.9,0,1.6-0.2,2.1-0.5c0.5-0.3,0.8-0.9,1.1-1.7l0,0l0.5-1.4l-5.7-16.2H103.3z M136.6,41.6v3h-8.8v9.3H124V32h13.9v3.1h-10.1v6.5
			H136.6z M139.6,45.8v-0.2c0-1.6,0.3-3,0.9-4.3c0.6-1.3,1.5-2.3,2.7-3c1.1-0.7,2.5-1,3.9-1l0,0c2.2,0,4,0.7,5.3,2.1
			c1.4,1.4,2.1,3.3,2.2,5.6l0,0l0,0.9c0,1.6-0.3,3-0.9,4.3c-0.6,1.3-1.5,2.2-2.6,2.9c-1.1,0.7-2.5,1-4,1l0,0c-2.3,0-4.1-0.8-5.5-2.3
			C140.3,50.4,139.6,48.4,139.6,45.8L139.6,45.8z M143.2,46L143.2,46c0,1.7,0.3,3,1,3.9c0.7,0.9,1.7,1.4,2.9,1.4
			c1.2,0,2.2-0.5,2.9-1.4c0.7-1,1-2.4,1-4.2l0,0c0-1.6-0.4-2.9-1.1-3.9c-0.7-1-1.7-1.4-2.9-1.4l0,0c-1.2,0-2.1,0.5-2.8,1.4
			C143.6,42.7,143.2,44.1,143.2,46z M157.1,45.8v-0.2c0-1.6,0.3-3,0.9-4.3c0.6-1.3,1.5-2.3,2.7-3c1.1-0.7,2.5-1,3.9-1l0,0
			c2.2,0,4,0.7,5.3,2.1c1.4,1.4,2.1,3.3,2.2,5.6l0,0l0,0.9c0,1.6-0.3,3-0.9,4.3c-0.6,1.3-1.5,2.2-2.6,2.9c-1.1,0.7-2.5,1-4,1l0,0
			c-2.3,0-4.1-0.8-5.5-2.3C157.8,50.4,157.1,48.4,157.1,45.8L157.1,45.8z M160.8,46L160.8,46c0,1.7,0.3,3,1,3.9
			c0.7,0.9,1.6,1.4,2.9,1.4c1.2,0,2.2-0.5,2.9-1.4c0.7-1,1-2.4,1-4.2l0,0c0-1.6-0.4-2.9-1.1-3.9c-0.7-1-1.7-1.4-2.9-1.4l0,0
			c-1.2,0-2.1,0.5-2.8,1.4C161.1,42.7,160.8,44.1,160.8,46z M174.7,45.7L174.7,45.7c0-2.5,0.6-4.5,1.7-6c1.2-1.5,2.7-2.3,4.7-2.3
			l0,0c1.7,0,3.1,0.6,4.2,1.8l0,0v-8.3h3.6v23.1h-3.3l-0.2-1.7c-1.1,1.3-2.5,2-4.4,2l0,0c-1.9,0-3.4-0.8-4.6-2.3
			C175.2,50.4,174.7,48.3,174.7,45.7z M178.3,46L178.3,46c0,1.7,0.3,2.9,1,3.9c0.6,0.9,1.5,1.4,2.7,1.4l0,0c1.5,0,2.6-0.7,3.3-2l0,0
			v-7c-0.7-1.3-1.8-2-3.3-2l0,0c-1.2,0-2.1,0.5-2.7,1.4C178.6,42.7,178.3,44.1,178.3,46z"/>
		<path class="st3" d="M8.5,74v-7.8H13V67H9.5v2.4h3v0.8h-3v2.8h3.6V74H8.5z M18.8,70.8h2.3l-0.4-1.2c-0.1-0.4-0.3-0.9-0.4-1.3
			c-0.1-0.4-0.3-0.9-0.4-1.3l0,0h0c-0.1,0.5-0.2,0.9-0.4,1.3c-0.1,0.4-0.3,0.9-0.4,1.3l0,0L18.8,70.8z M22.1,74l-0.7-2.4h-2.8
			L17.8,74h-1l2.6-7.8h1.1l2.6,7.8H22.1z M28.4,74v-7H26v-0.8h5.7V67h-2.4v7H28.4z M42.5,66.9v2.9h1.3c0.6,0,1.1-0.1,1.4-0.4
			c0.3-0.3,0.5-0.6,0.5-1.1l0,0c0-0.5-0.2-0.9-0.5-1.1c-0.3-0.2-0.8-0.3-1.4-0.3l0,0H42.5z M46.9,74h-1.1l-1.9-3.3h-1.4V74h-1v-7.8
			h2.4c0.4,0,0.8,0,1.1,0.1c0.3,0.1,0.6,0.2,0.9,0.4c0.2,0.2,0.4,0.4,0.6,0.7c0.1,0.3,0.2,0.6,0.2,1l0,0c0,0.6-0.2,1.1-0.5,1.5
			c-0.3,0.4-0.7,0.6-1.3,0.8l0,0L46.9,74z M51.4,74v-7.8h1V74H51.4z M57,70L57,70c0-0.6,0.1-1.2,0.3-1.7s0.4-0.9,0.8-1.3
			c0.3-0.4,0.7-0.6,1.1-0.8c0.4-0.2,0.9-0.3,1.4-0.3l0,0c0.5,0,1,0.1,1.4,0.3c0.4,0.2,0.7,0.4,0.9,0.7l0,0l-0.6,0.6
			c-0.2-0.2-0.4-0.4-0.7-0.5s-0.6-0.2-1-0.2l0,0c-0.4,0-0.8,0.1-1.1,0.2c-0.3,0.1-0.6,0.4-0.8,0.6c-0.2,0.3-0.4,0.6-0.5,1
			c-0.1,0.4-0.2,0.8-0.2,1.3l0,0c0,0.5,0.1,0.9,0.2,1.3c0.1,0.4,0.3,0.7,0.5,1c0.2,0.3,0.5,0.5,0.8,0.6c0.3,0.2,0.7,0.2,1.1,0.2l0,0
			c0.3,0,0.5,0,0.8-0.1c0.2-0.1,0.4-0.2,0.6-0.3l0,0v-2h-1.6v-0.8H63v3.3c-0.3,0.3-0.6,0.5-1,0.7c-0.4,0.2-0.9,0.2-1.4,0.2l0,0
			c-0.5,0-1-0.1-1.4-0.3c-0.4-0.2-0.8-0.4-1.1-0.8c-0.3-0.3-0.6-0.8-0.7-1.3C57.1,71.3,57,70.7,57,70z M67.8,74v-7.8h1v3.3h3.6v-3.3
			h1V74h-1v-3.7h-3.6V74H67.8z M80.2,74v-7h-2.4v-0.8h5.7V67h-2.4v7H80.2z M86.4,76l-0.2-0.6c0.3-0.1,0.6-0.3,0.8-0.6
			c0.2-0.2,0.3-0.5,0.3-0.9l0,0c0,0-0.1,0-0.1,0l0,0c-0.2,0-0.4-0.1-0.5-0.2c-0.1-0.1-0.2-0.3-0.2-0.5l0,0c0-0.2,0.1-0.4,0.2-0.5
			c0.1-0.1,0.3-0.2,0.5-0.2l0,0c0.3,0,0.5,0.1,0.6,0.3c0.1,0.2,0.2,0.5,0.2,0.9l0,0c0,0.5-0.1,1-0.4,1.3
			C87.2,75.5,86.9,75.8,86.4,76L86.4,76z M98,74v-7.8h4.5V67h-3.5v2.6h3v0.8h-3V74H98z M106.8,74v-7.8h4.5V67h-3.5v2.4h3v0.8h-3v2.8
			h3.6V74H106.8z M116.1,74v-7.8h4.5V67H117v2.4h3v0.8h-3v2.8h3.6V74H116.1z M125.3,74v-7.8h1v7h3.4V74H125.3z M139.5,74v-7.8h2.3
			c0.4,0,0.8,0,1.1,0.1c0.3,0.1,0.6,0.2,0.8,0.3c0.2,0.2,0.4,0.4,0.5,0.6c0.1,0.2,0.2,0.5,0.2,0.9l0,0c0,0.4-0.1,0.7-0.3,1.1
			c-0.2,0.3-0.6,0.5-1,0.6l0,0v0c0.6,0.1,1,0.3,1.3,0.6c0.3,0.3,0.5,0.7,0.5,1.3l0,0c0,0.4-0.1,0.7-0.2,1c-0.1,0.3-0.3,0.5-0.6,0.7
			c-0.3,0.2-0.6,0.3-0.9,0.4c-0.4,0.1-0.8,0.1-1.2,0.1l0,0H139.5z M140.4,69.5h1.2c0.7,0,1.2-0.1,1.4-0.3c0.3-0.2,0.4-0.6,0.4-1l0,0
			c0-0.4-0.2-0.7-0.5-0.9c-0.3-0.2-0.8-0.3-1.4-0.3l0,0h-1.2V69.5z M140.4,73.2h1.4c0.7,0,1.2-0.1,1.6-0.4c0.4-0.3,0.6-0.6,0.6-1.2
			l0,0c0-0.5-0.2-0.8-0.5-1.1c-0.4-0.2-0.9-0.3-1.6-0.3l0,0h-1.4V73.2z M150.4,66.9v2.9h1.3c0.6,0,1.1-0.1,1.4-0.4
			c0.3-0.3,0.5-0.6,0.5-1.1l0,0c0-0.5-0.2-0.9-0.5-1.1c-0.3-0.2-0.8-0.3-1.4-0.3l0,0H150.4z M154.8,74h-1.1l-1.9-3.3h-1.4V74h-1
			v-7.8h2.4c0.4,0,0.8,0,1.1,0.1c0.3,0.1,0.6,0.2,0.9,0.4c0.2,0.2,0.4,0.4,0.6,0.7c0.1,0.3,0.2,0.6,0.2,1l0,0c0,0.6-0.2,1.1-0.5,1.5
			c-0.3,0.4-0.7,0.6-1.3,0.8l0,0L154.8,74z M159.3,74v-7.8h1V74H159.3z M165,70L165,70c0-0.6,0.1-1.2,0.3-1.7
			c0.2-0.5,0.4-0.9,0.7-1.3c0.3-0.4,0.7-0.6,1.1-0.8c0.4-0.2,0.9-0.3,1.4-0.3l0,0c0.5,0,1,0.1,1.3,0.3c0.4,0.2,0.7,0.4,0.9,0.7l0,0
			l-0.6,0.6c-0.2-0.2-0.4-0.4-0.7-0.5c-0.3-0.1-0.6-0.2-1-0.2l0,0c-0.4,0-0.8,0.1-1.1,0.2c-0.3,0.1-0.6,0.4-0.8,0.6
			c-0.2,0.3-0.4,0.6-0.5,1c-0.1,0.4-0.2,0.8-0.2,1.3l0,0c0,0.5,0.1,0.9,0.2,1.3c0.1,0.4,0.3,0.7,0.5,1c0.2,0.3,0.5,0.5,0.8,0.6
			c0.3,0.2,0.7,0.2,1.1,0.2l0,0c0.3,0,0.5,0,0.8-0.1c0.3-0.1,0.5-0.2,0.6-0.3l0,0v-2h-1.7v-0.8h2.6v3.3c-0.3,0.3-0.6,0.5-1,0.7
			c-0.4,0.2-0.9,0.2-1.4,0.2l0,0c-0.5,0-1-0.1-1.4-0.3c-0.4-0.2-0.8-0.4-1.1-0.8c-0.3-0.3-0.6-0.8-0.7-1.3
			C165.1,71.3,165,70.7,165,70z M175.7,74v-7.8h1v3.3h3.6v-3.3h1V74h-1v-3.7h-3.6V74H175.7z M188.1,74v-7h-2.4v-0.8h5.7V67h-2.4v7
			H188.1z"/>
	</g>
	<path class="st1" d="M55.5,21.9c0-8.3-5.8-15-10.3-15c-4.1,0-10.3,6.7-10.3,15c0,7.2,3.1,13.3,8.1,14.7c0,4.9-0.2,32.1-1.1,39.3
		c-1,8.5-3.6,18.3,3.3,18.3c6.9,0,4.4-9.8,3.3-18.3c-0.9-7.2-1.1-34.4-1.1-39.3C52.4,35.2,55.5,29.2,55.5,21.9z"/>
	<path class="st4" d="M159.4,6.2h-0.3c-0.6,0-1.1,0.5-1.1,1v20.5h-2.2l0-20.5c0-0.6-0.5-1-1.1-1h-0.3c-0.6,0-1.1,0.5-1.1,1l0,20.5
		l-2.1,0V7.2c0-0.6-0.5-1-1.1-1l-0.3,0c-0.6,0-1.1,0.5-1.1,1v20.5h-2.1V7.2c0-0.6-0.5-1-1.1-1h-0.3c-0.6,0-1.1,0.5-1.1,1v20.5l0,5.7
		c0,3.5,2.5,6.4,5.7,7.1l0,0c0,0-0.1,22.6-1.2,31.5c-1.1,8.9-3.8,22.8,3.5,22.8c7.2,0,4.6-13.9,3.5-22.8c-1.1-8.9-1.2-31.5-1.2-31.5
		l0,0c3.3-0.7,5.7-3.7,5.7-7.1v-5.7V7.2C160.5,6.7,160,6.2,159.4,6.2z"/>
</g>
</svg>
