<?xml version="1.0" encoding="utf-8"?>
<!-- Generator: Adobe Illustrator 24.1.3, SVG Export Plug-In . SVG Version: 6.00 Build 0)  -->
<svg version="1.1" id="Layer_1" xmlns="http://www.w3.org/2000/svg" xmlns:xlink="http://www.w3.org/1999/xlink" x="0px" y="0px"
	 viewBox="0 0 200 150" style="enable-background:new 0 0 200 150;" xml:space="preserve">
<style type="text/css">
	.st0{fill:#F58020;fill-opacity:0;}
	.st1{fill:#98A523;}
	.st2{fill:url(#SVGID_1_);}
	.st3{fill:#313131;stroke:#313131;stroke-miterlimit:10;}
	.st4{fill:#CADC2E;}
</style>
<g>
	<g transform="translate(54.037187576293945,0)">
		<rect x="1.2" y="5.8" class="st0" width="89.5" height="89.5"/>
		<g>
			<g>
				<g transform="scale(1, 1) skewX(0)">
					<path class="st1" d="M46.2,99.7c-2,0-3.8-0.8-5.2-2.1l-37.6-37c-1.4-1.4-2.2-3.3-2.2-5.3S2,51.4,3.4,50l36.9-37.5
						c1.5-1.5,3.4-2.3,5.5-2.3c2,0,3.8,0.8,5.2,2.1l37.6,37c1.4,1.4,2.2,3.3,2.2,5.3s-0.8,3.9-2.2,5.3l-37,37.5
						C50.2,98.9,48.2,99.7,46.2,99.7z M45.7,13.9c-1.1,0-2.1,0.4-2.8,1.2L6,52.4c-0.7,0.8-1.2,1.7-1.2,2.8c0,1,0.4,2,1.1,2.7
						l37.6,37c1.5,1.4,4,1.4,5.5-0.1l36.9-37.4c0.7-0.8,1.2-1.7,1.2-2.8c0-1-0.4-2-1.1-2.7l-37.6-37C47.7,14.2,46.7,13.9,45.7,13.9z
						"/>
				</g>
			</g>
			<g>
				<linearGradient id="SVGID_1_" gradientUnits="userSpaceOnUse" x1="17.3238" y1="54.9013" x2="74.6018" y2="54.9013">
					<stop  offset="2.237672e-07" style="stop-color:#CADC2E"/>
					<stop  offset="1" style="stop-color:#98A523"/>
				</linearGradient>
				<path class="st2" d="M37.9,27h10.2l-8.7,55.8H25.7L17.3,27h10.2l5.2,37.7L37.9,27z M74.6,36.4v12.1H64.4V36.4c0-2-1-3-3-3l0,0
					c-2,0-3,1-3,3l0,0v46.4H48.3V27h10.2v1.9c2-1.3,4.7-1.9,8.2-1.9l0,0c2,0,3.9,0.9,5.5,2.6C73.8,31.3,74.6,33.6,74.6,36.4
					L74.6,36.4z"/>
			</g>
		</g>
	</g>
	<g transform="translate(0,68.21562957763672)">
		<path class="st3" d="M8.7,73.9v-8.4h4.8v0.9H9.8v2.6H13v0.9H9.8v3h3.9v1.1H8.7z M18.7,70.4h2.5l-0.4-1.3c-0.1-0.4-0.3-1-0.4-1.4
			c-0.1-0.4-0.3-1-0.4-1.4l0,0l0,0c-0.1,0.5-0.2,1-0.4,1.4c-0.1,0.4-0.3,1-0.4,1.4l0,0L18.7,70.4z M22.2,73.9l-0.8-2.6h-3l-0.9,2.6
			h-1.1l2.8-8.4h1.2l2.8,8.4H22.2z M27.9,73.9v-7.5h-2.6v-0.9h6.1v0.9h-2.6v7.5H27.9z M40.9,66.2v3.1h1.4c0.6,0,1.2-0.1,1.5-0.4
			c0.3-0.3,0.5-0.6,0.5-1.2l0,0c0-0.5-0.2-1-0.5-1.2c-0.3-0.2-0.9-0.3-1.5-0.3l0,0H40.9z M45.7,73.9h-1.2l-2-3.5h-1.5v3.5h-1.1v-8.4
			h2.6c0.4,0,0.9,0,1.2,0.1s0.6,0.2,1,0.4c0.2,0.2,0.4,0.4,0.6,0.8c0.1,0.3,0.2,0.6,0.2,1.1l0,0c0,0.6-0.2,1.2-0.5,1.6
			c-0.3,0.4-0.8,0.6-1.4,0.9l0,0L45.7,73.9z M49.4,73.9v-8.4h1.1v8.4H49.4z M54.4,69.6L54.4,69.6c0-0.6,0.1-1.3,0.3-1.8
			c0.2-0.5,0.4-1,0.9-1.4c0.3-0.4,0.8-0.6,1.2-0.9c0.4-0.2,1-0.3,1.5-0.3l0,0c0.5,0,1.1,0.1,1.5,0.3c0.4,0.2,0.8,0.4,1,0.8l0,0
			l-0.6,0.6c-0.2-0.2-0.4-0.4-0.8-0.5s-0.6-0.2-1.1-0.2l0,0c-0.4,0-0.9,0.1-1.2,0.2c-0.3,0.1-0.6,0.4-0.9,0.6
			c-0.2,0.3-0.4,0.6-0.5,1.1c-0.1,0.4-0.2,0.9-0.2,1.4l0,0c0,0.5,0.1,1,0.2,1.4c0.1,0.4,0.3,0.8,0.5,1.1c0.2,0.3,0.5,0.5,0.9,0.6
			c0.3,0.2,0.8,0.2,1.2,0.2l0,0c0.3,0,0.5,0,0.9-0.1c0.2-0.1,0.4-0.2,0.6-0.3l0,0v-2.1H58v-0.9h2.8v3.5c-0.3,0.3-0.6,0.5-1.1,0.8
			c-0.4,0.2-1,0.2-1.5,0.2l0,0c-0.5,0-1.1-0.1-1.5-0.3c-0.4-0.2-0.9-0.4-1.2-0.9c-0.3-0.3-0.6-0.9-0.8-1.4
			C54.5,70.9,54.4,70.3,54.4,69.6z M66,73.9v-8.4h1.1V69h3.9v-3.5H72v8.4h-1.1v-4h-3.9v4H66z M79.3,73.9v-7.5h-2.6v-0.9h6.1v0.9
			h-2.6v7.5H79.3z M87,76l-0.2-0.6c0.3-0.1,0.6-0.3,0.9-0.6c0.2-0.2,0.3-0.5,0.3-1l0,0h-0.1l0,0c-0.2,0-0.4-0.1-0.5-0.2
			c-0.1-0.1-0.2-0.3-0.2-0.5l0,0c0-0.2,0.1-0.4,0.2-0.5c0.1-0.1,0.3-0.2,0.5-0.2l0,0c0.3,0,0.5,0.1,0.6,0.3c0.1,0.2,0.2,0.5,0.2,1
			l0,0c0,0.5-0.1,1.1-0.4,1.4C87.9,75.5,87.6,75.8,87,76L87,76z M96.3,73.9v-8.4h4.8v0.9h-3.8v2.8h3.2V70h-3.2v3.9H96.3z
			 M104.7,73.9v-8.4h4.8v0.9h-3.8v2.6h3.2v0.9h-3.2v3h3.9v1.1H104.7z M113.6,73.9v-8.4h4.8v0.9h-3.9v2.6h3.2v0.9h-3.2v3h3.9v1.1
			H113.6z M123.5,73.9v-8.4h1.1V73h3.7v0.9H123.5z M137.7,73.9v-8.4h2.5c0.4,0,0.9,0,1.2,0.1s0.6,0.2,0.9,0.3
			c0.2,0.2,0.4,0.4,0.5,0.6c0.1,0.2,0.2,0.5,0.2,1l0,0c0,0.4-0.1,0.8-0.3,1.2c-0.2,0.3-0.6,0.5-1.1,0.6l0,0l0,0
			c0.6,0.1,1.1,0.3,1.4,0.6c0.3,0.3,0.5,0.8,0.5,1.4l0,0c0,0.4-0.1,0.8-0.2,1.1c-0.1,0.3-0.3,0.5-0.6,0.8s-0.6,0.3-1,0.4
			c-0.4,0.1-0.9,0.1-1.3,0.1l0,0h-2.7V73.9z M138.6,69h1.3c0.8,0,1.3-0.1,1.5-0.3c0.3-0.2,0.4-0.6,0.4-1.1l0,0c0-0.4-0.2-0.8-0.5-1
			s-0.9-0.3-1.5-0.3l0,0h-1.3V69H138.6z M138.6,73h1.5c0.8,0,1.3-0.1,1.7-0.4c0.4-0.3,0.6-0.6,0.6-1.3l0,0c0-0.5-0.2-0.9-0.5-1.2
			c-0.4-0.2-1-0.3-1.7-0.3l0,0h-1.5V73H138.6z M148.3,66.2v3.1h1.4c0.6,0,1.2-0.1,1.5-0.4c0.3-0.3,0.5-0.6,0.5-1.2l0,0
			c0-0.5-0.2-1-0.5-1.2c-0.3-0.2-0.9-0.3-1.5-0.3l0,0H148.3z M153,73.9h-1.2l-2-3.5h-1.5v3.5h-1.1v-8.4h2.6c0.4,0,0.9,0,1.2,0.1
			c0.3,0.1,0.6,0.2,1,0.4c0.2,0.2,0.4,0.4,0.6,0.8c0.1,0.3,0.2,0.6,0.2,1.1l0,0c0,0.6-0.2,1.2-0.5,1.6c-0.3,0.4-0.8,0.6-1.4,0.9l0,0
			L153,73.9z M157.9,73.9v-8.4h1.1v8.4H157.9z M162.9,69.6L162.9,69.6c0-0.6,0.1-1.3,0.3-1.8c0.2-0.5,0.4-1,0.8-1.4
			c0.3-0.4,0.8-0.6,1.2-0.9c0.4-0.2,1-0.3,1.5-0.3l0,0c0.5,0,1.1,0.1,1.4,0.3c0.4,0.2,0.8,0.4,1,0.8l0,0l-0.6,0.6
			c-0.2-0.2-0.4-0.4-0.8-0.5c-0.3-0.1-0.6-0.2-1.1-0.2l0,0c-0.4,0-0.9,0.1-1.2,0.2s-0.6,0.4-0.9,0.6c-0.2,0.3-0.4,0.6-0.5,1.1
			c-0.1,0.4-0.2,0.9-0.2,1.4l0,0c0,0.5,0.1,1,0.2,1.4c0.1,0.4,0.3,0.8,0.5,1.1c0.2,0.3,0.5,0.5,0.9,0.6c0.3,0.2,0.8,0.2,1.2,0.2l0,0
			c0.3,0,0.5,0,0.9-0.1c0.3-0.1,0.5-0.2,0.6-0.3l0,0v-2.1h-1.8v-0.9h2.8v3.5c-0.3,0.3-0.6,0.5-1.1,0.8c-0.4,0.2-1,0.2-1.5,0.2l0,0
			c-0.5,0-1.1-0.1-1.5-0.3c-0.4-0.2-0.9-0.4-1.2-0.9c-0.3-0.3-0.6-0.9-0.8-1.4C163,70.9,162.9,70.3,162.9,69.6z M174.4,73.9v-8.4
			h1.1V69h3.9v-3.5h1.1v8.4h-1.1v-4h-3.9v4H174.4z M187.8,73.9v-7.5h-2.6v-0.9h6.1v0.9h-2.6v7.5H187.8z"/>
	</g>
	<path class="st1" d="M55.5,21.9c0-8.3-5.8-15-10.3-15c-4.1,0-10.3,6.7-10.3,15c0,7.2,3.1,13.3,8.1,14.7c0,4.9-0.2,32.1-1.1,39.3
		c-1,8.5-3.6,18.3,3.3,18.3s4.4-9.8,3.3-18.3c-0.9-7.2-1.1-34.4-1.1-39.3C52.4,35.2,55.5,29.2,55.5,21.9z"/>
	<path class="st4" d="M159.4,6.2h-0.3c-0.6,0-1.1,0.5-1.1,1v20.5h-2.2V7.2c0-0.6-0.5-1-1.1-1h-0.3c-0.6,0-1.1,0.5-1.1,1v20.5h-2.1
		V7.2c0-0.6-0.5-1-1.1-1h-0.3c-0.6,0-1.1,0.5-1.1,1v20.5h-2.1V7.2c0-0.6-0.5-1-1.1-1h-0.3c-0.6,0-1.1,0.5-1.1,1v20.5v5.7
		c0,3.5,2.5,6.4,5.7,7.1l0,0c0,0-0.1,22.6-1.2,31.5c-1.1,8.9-3.8,22.8,3.5,22.8c7.2,0,4.6-13.9,3.5-22.8s-1.2-31.5-1.2-31.5l0,0
		c3.3-0.7,5.7-3.7,5.7-7.1v-5.7V7.2C160.5,6.7,160,6.2,159.4,6.2z"/>
</g>
<g transform="translate(0,0)">
	<g transform="scale(1)">
		<g>
			<path class="st1" d="M12.8,101.9l5.7,17.7l5.7-17.7h4.3l-8.1,22.6h-3.8l-8.1-22.6H12.8z M34.7,107.7v16.8H31v-16.8H34.7z
				 M30.7,103.3L30.7,103.3c0-0.6,0.2-1.1,0.6-1.5c0.4-0.4,0.9-0.6,1.6-0.6c0.7,0,1.2,0.2,1.6,0.6c0.4,0.4,0.6,0.9,0.6,1.5l0,0
				c0,0.6-0.2,1-0.6,1.4c-0.4,0.4-0.9,0.6-1.6,0.6c-0.7,0-1.2-0.2-1.6-0.6C30.9,104.3,30.7,103.9,30.7,103.3z M38.1,115.9
				L38.1,115.9c0-2.6,0.6-4.7,1.8-6.2c1.2-1.6,2.8-2.4,4.8-2.4l0,0c1.8,0,3.2,0.6,4.3,1.9l0,0v-8.6h3.8v23.8h-3.4l-0.2-1.7
				c-1.1,1.4-2.6,2-4.5,2l0,0c-2,0-3.6-0.8-4.8-2.4S38.1,118.6,38.1,115.9z M41.9,116.3L41.9,116.3c0,1.7,0.3,3,1,4
				c0.7,1,1.6,1.4,2.8,1.4l0,0c1.5,0,2.7-0.7,3.4-2.1l0,0v-7.2c-0.7-1.3-1.8-2-3.3-2l0,0c-1.2,0-2.2,0.5-2.8,1.5
				C42.2,112.9,41.9,114.3,41.9,116.3z M70.6,124.4h-3.8c-0.2-0.3-0.3-0.8-0.4-1.6l0,0c-1.2,1.3-2.7,1.9-4.4,1.9l0,0
				c-1.7,0-3.1-0.5-4.1-1.5c-1.1-1-1.6-2.1-1.6-3.6l0,0c0-1.8,0.7-3.2,2-4.1c1.3-1,3.2-1.4,5.7-1.4l0,0h2.3v-1.1
				c0-0.9-0.2-1.6-0.7-2.1c-0.5-0.5-1.2-0.8-2.2-0.8l0,0c-0.9,0-1.6,0.2-2.1,0.6c-0.5,0.4-0.8,1-0.8,1.6l0,0h-3.8
				c0-0.9,0.3-1.8,0.9-2.6s1.4-1.4,2.5-1.9c1-0.5,2.2-0.7,3.5-0.7l0,0c2,0,3.5,0.5,4.7,1.5c1.2,1,1.8,2.4,1.8,4.2l0,0v7.6
				c0,1.5,0.2,2.7,0.6,3.6l0,0V124.4z M62.6,121.7L62.6,121.7c0.7,0,1.4-0.2,2.1-0.5c0.7-0.4,1.2-0.8,1.5-1.5l0,0v-3.2h-2
				c-1.4,0-2.4,0.2-3.1,0.7c-0.7,0.5-1.1,1.2-1.1,2.1l0,0c0,0.7,0.2,1.3,0.7,1.7C61.2,121.5,61.8,121.7,62.6,121.7z M95,124.4
				l-4.5-8.7h-4.4v8.7h-3.9v-22.6h7.9c2.6,0,4.6,0.6,6,1.8c1.4,1.2,2.1,2.9,2.1,5.1l0,0c0,1.5-0.4,2.8-1.1,3.8c-0.7,1-1.7,1.8-3,2.4
				l0,0l5.1,9.4v0.2H95z M86.1,105v7.6h4c1.3,0,2.4-0.3,3.1-1c0.7-0.7,1.1-1.6,1.1-2.7l0,0c0-1.2-0.3-2.1-1-2.8
				c-0.7-0.7-1.7-1-3.1-1l0,0H86.1z M109,124.8L109,124.8c-2.4,0-4.3-0.8-5.8-2.3c-1.5-1.5-2.2-3.5-2.2-6l0,0V116
				c0-1.7,0.3-3.2,1-4.5c0.6-1.3,1.6-2.3,2.7-3.1c1.2-0.7,2.5-1.1,3.9-1.1l0,0c2.3,0,4.1,0.7,5.3,2.2c1.2,1.5,1.9,3.5,1.9,6.2l0,0
				v1.5h-11c0.1,1.4,0.6,2.5,1.4,3.3c0.8,0.8,1.8,1.2,3.1,1.2l0,0c1.7,0,3.1-0.7,4.2-2.1l0,0l2,1.9c-0.7,1-1.6,1.8-2.7,2.3
				C111.7,124.5,110.4,124.8,109,124.8z M108.6,110.4L108.6,110.4c-1,0-1.9,0.4-2.5,1.1c-0.6,0.7-1,1.7-1.2,3l0,0h7.2v-0.3
				c-0.1-1.3-0.4-2.2-1-2.9C110.5,110.7,109.6,110.4,108.6,110.4z M125.6,121.7L125.6,121.7c0.9,0,1.7-0.3,2.3-0.8
				c0.6-0.5,1-1.2,1-2l0,0h3.6c0,1-0.4,2-1,2.9c-0.6,0.9-1.4,1.6-2.5,2.2c-1,0.5-2.2,0.8-3.4,0.8l0,0c-2.3,0-4.2-0.8-5.6-2.3
				c-1.4-1.5-2.1-3.6-2.1-6.3l0,0v-0.4c0-2.5,0.7-4.6,2-6.1c1.4-1.5,3.2-2.3,5.6-2.3l0,0c2,0,3.6,0.6,4.9,1.7c1.3,1.2,1.9,2.7,2,4.6
				l0,0h-3.6c0-1-0.4-1.8-1-2.4c-0.6-0.6-1.4-0.9-2.4-0.9l0,0c-1.2,0-2.2,0.4-2.8,1.3c-0.7,0.9-1,2.2-1,4l0,0v0.6
				c0,1.8,0.3,3.2,1,4.1C123.4,121.3,124.4,121.7,125.6,121.7z M139.3,107.7v16.8h-3.8v-16.8H139.3z M135.3,103.3L135.3,103.3
				c0-0.6,0.2-1.1,0.6-1.5c0.4-0.4,0.9-0.6,1.6-0.6c0.7,0,1.2,0.2,1.6,0.6c0.4,0.4,0.6,0.9,0.6,1.5l0,0c0,0.6-0.2,1-0.6,1.4
				c-0.4,0.4-0.9,0.6-1.6,0.6c-0.7,0-1.2-0.2-1.6-0.6C135.5,104.3,135.3,103.9,135.3,103.3z M158.1,116v0.2c0,2.6-0.6,4.7-1.8,6.2
				c-1.2,1.5-2.8,2.3-4.7,2.3l0,0c-1.8,0-3.3-0.6-4.4-1.8l0,0v8h-3.8v-23.2h3.5l0.2,1.7c1.1-1.3,2.6-2,4.5-2l0,0
				c2,0,3.6,0.8,4.8,2.3C157.5,111.2,158.1,113.3,158.1,116L158.1,116z M154.4,115.9L154.4,115.9c0-1.7-0.3-3-1-4
				c-0.7-1-1.6-1.5-2.9-1.5l0,0c-1.5,0-2.7,0.6-3.3,1.9l0,0v7.4c0.7,1.3,1.8,2,3.3,2l0,0c1.2,0,2.1-0.5,2.8-1.5
				C154,119.3,154.4,117.9,154.4,115.9z M168.7,124.8L168.7,124.8c-2.4,0-4.3-0.8-5.8-2.3c-1.5-1.5-2.2-3.5-2.2-6l0,0V116
				c0-1.7,0.3-3.2,1-4.5c0.6-1.3,1.5-2.3,2.7-3.1c1.2-0.7,2.5-1.1,3.9-1.1l0,0c2.3,0,4,0.7,5.3,2.2c1.2,1.5,1.9,3.5,1.9,6.2l0,0v1.5
				h-11c0.1,1.4,0.6,2.5,1.4,3.3c0.8,0.8,1.8,1.2,3.1,1.2l0,0c1.7,0,3.1-0.7,4.2-2.1l0,0l2,1.9c-0.7,1-1.6,1.8-2.7,2.3
				C171.4,124.5,170.1,124.8,168.7,124.8z M168.2,110.4L168.2,110.4c-1,0-1.9,0.4-2.5,1.1c-0.6,0.7-1,1.7-1.2,3l0,0h7.2v-0.3
				c-0.1-1.3-0.4-2.2-1-2.9C170.1,110.7,169.3,110.4,168.2,110.4z M187.8,119.9L187.8,119.9c0-0.7-0.3-1.2-0.8-1.5
				c-0.6-0.3-1.5-0.7-2.8-0.9c-1.3-0.3-2.4-0.6-3.2-1l0,0c-1.9-0.9-2.8-2.2-2.8-4l0,0c0-1.5,0.6-2.7,1.8-3.6c1.2-1,2.8-1.5,4.6-1.5
				l0,0c2,0,3.6,0.5,4.9,1.5c1.2,1,1.9,2.3,1.9,3.9l0,0h-3.8c0-0.7-0.3-1.3-0.8-1.8c-0.5-0.5-1.3-0.7-2.1-0.7l0,0
				c-0.8,0-1.5,0.2-2,0.6c-0.5,0.4-0.8,0.9-0.8,1.5l0,0c0,0.6,0.2,1,0.7,1.3c0.5,0.3,1.5,0.6,2.9,1c1.5,0.3,2.6,0.7,3.5,1.2
				c0.8,0.4,1.5,1,1.9,1.6c0.4,0.6,0.6,1.4,0.6,2.3l0,0c0,1.5-0.6,2.7-1.9,3.7c-1.2,0.9-2.9,1.4-4.9,1.4l0,0c-1.4,0-2.6-0.2-3.7-0.7
				c-1.1-0.5-1.9-1.2-2.5-2s-0.9-1.8-0.9-2.8l0,0h3.7c0.1,0.9,0.4,1.6,1,2c0.6,0.5,1.4,0.7,2.5,0.7l0,0c1,0,1.7-0.2,2.3-0.6
				S187.8,120.5,187.8,119.9z"/>
		</g>
	</g>
</g>
</svg>
